<svg xmlns="http://www.w3.org/2000/svg" xmlns:xlink="http://www.w3.org/1999/xlink" contentStyleType="text/css" data-diagram-type="SEQUENCE" height="187px" preserveAspectRatio="none" style="width:340px;height:187px;background:#FFFFFF;" version="1.1" viewBox="0 0 340 187" width="340px" zoomAndPan="magnify"><title>Detailed Design Example Dynamic View</title><defs/><g><text fill="#000000" font-family="sans-serif" font-size="14" font-weight="bold" lengthAdjust="spacing" textLength="312.9561" x="10" y="27.9951">Detailed Design Example Dynamic View</text><g><title>unit1</title><rect fill="transparent" height="78.2656" width="8" x="132.446" y="73.5938"/><line style="stroke:#181818;stroke-width:0.5;stroke-dasharray:5.0,5.0;" x1="136.4299" x2="136.4299" y1="73.5938" y2="151.8594"/></g><g><title>unit2</title><rect fill="transparent" height="78.2656" width="8" x="193.51" y="73.5938"/><line style="stroke:#181818;stroke-width:0.5;stroke-dasharray:5.0,5.0;" x1="197.4939" x2="197.4939" y1="73.5938" y2="151.8594"/></g><rect fill="#E2E2F0" height="30.2969" rx="2.5" ry="2.5" style="stroke:#181818;stroke-width:0.5;" width="50.0322" x="111.4299" y="42.2969"/><text fill="#000000" font-family="sans-serif" font-size="14" lengthAdjust="spacing" textLength="36.0322" x="118.4299" y="62.292">unit1</text><rect fill="#E2E2F0" height="30.2969" rx="2.5" ry="2.5" style="stroke:#181818;stroke-width:0.5;" width="50.0322" x="111.4299" y="150.8594"/><text fill="#000000" font-family="sans-serif" font-size="14" lengthAdjust="spacing" textLength="36.0322" x="118.4299" y="170.8545">unit1</text><rect fill="#E2E2F0" height="30.2969" rx="2.5" ry="2.5" style="stroke:#181818;stroke-width:0.5;" width="50.0322" x="172.4939" y="42.2969"/><text fill="#000000" font-family="sans-serif" font-size="14" lengthAdjust="spacing" textLength="36.0322" x="179.4939" y="62.292">unit2</text><rect fill="#E2E2F0" height="30.2969" rx="2.5" ry="2.5" style="stroke:#181818;stroke-width:0.5;" width="50.0322" x="172.4939" y="150.8594"/><text fill="#000000" font-family="sans-serif" font-size="14" lengthAdjust="spacing" textLength="36.0322" x="179.4939" y="170.8545">unit2</text><polygon fill="#181818" points="185.51,100.7266,195.51,104.7266,185.51,108.7266,189.51,104.7266" style="stroke:#181818;stroke-width:1;"/><line style="stroke:#181818;stroke-width:1;" x1="136.446" x2="191.51" y1="104.7266" y2="104.7266"/><text fill="#000000" font-family="sans-serif" font-size="13" lengthAdjust="spacing" textLength="22.3374" x="143.446" y="99.6606">call</text><polygon fill="#181818" points="147.446,129.8594,137.446,133.8594,147.446,137.8594,143.446,133.8594" style="stroke:#181818;stroke-width:1;"/><line style="stroke:#181818;stroke-width:1;stroke-dasharray:2.0,2.0;" x1="141.446" x2="196.51" y1="133.8594" y2="133.8594"/><text fill="#000000" font-family="sans-serif" font-size="13" lengthAdjust="spacing" textLength="37.064" x="153.446" y="128.7935">result</text><!--SRC=[PSan3e0W38NXlQVe1HXqT73IAxWts9WcbH0eKMylYflR-xzdOieuiP4ehtLasGBE9-tnyIlGBXuNuGCWKZBn4YaObY3M_QG7U0zqOsiSq9Cgj70VTvKJvw86Dm00]--></g></svg>