<svg xmlns="http://www.w3.org/2000/svg" xmlns:xlink="http://www.w3.org/1999/xlink" contentStyleType="text/css" data-diagram-type="DESCRIPTION" height="219px" preserveAspectRatio="none" style="width:319px;height:219px;background:#FFFFFF;" version="1.1" viewBox="0 0 319 219" width="319px" zoomAndPan="magnify"><title>Detailed Design Example Static View</title><defs/><g><text fill="#000000" font-family="sans-serif" font-size="14" font-weight="bold" lengthAdjust="spacing" textLength="291.1221" x="10" y="22.9951">Detailed Design Example Static View</text><!--entity unit1--><g id="elem_unit1"><rect fill="#F1F1F1" height="46.2969" rx="2.5" ry="2.5" style="stroke:#181818;stroke-width:0.5;" width="76.0322" x="125.0449" y="44.2969"/><rect fill="#F1F1F1" height="10" style="stroke:#181818;stroke-width:0.5;" width="15" x="181.0771" y="49.2969"/><rect fill="#F1F1F1" height="2" style="stroke:#181818;stroke-width:0.5;" width="4" x="179.0771" y="51.2969"/><rect fill="#F1F1F1" height="2" style="stroke:#181818;stroke-width:0.5;" width="4" x="179.0771" y="55.2969"/><text fill="#000000" font-family="sans-serif" font-size="14" lengthAdjust="spacing" textLength="36.0322" x="140.0449" y="77.292">unit1</text></g><!--entity unit2--><g id="elem_unit2"><rect fill="#F1F1F1" height="46.2969" rx="2.5" ry="2.5" style="stroke:#181818;stroke-width:0.5;" width="76.0322" x="125.0449" y="167.2969"/><rect fill="#F1F1F1" height="10" style="stroke:#181818;stroke-width:0.5;" width="15" x="181.0771" y="172.2969"/><rect fill="#F1F1F1" height="2" style="stroke:#181818;stroke-width:0.5;" width="4" x="179.0771" y="174.2969"/><rect fill="#F1F1F1" height="2" style="stroke:#181818;stroke-width:0.5;" width="4" x="179.0771" y="178.2969"/><text fill="#000000" font-family="sans-serif" font-size="14" lengthAdjust="spacing" textLength="36.0322" x="140.0449" y="200.292">unit2</text></g><!--link unit1 to unit2--><g id="link_unit1_unit2"><path d="M163.0449,90.4869 C163.0449,112.3269 163.0449,139.4569 163.0449,161.2469 " fill="transparent" id="unit1-to-unit2" style="stroke:#181818;stroke-width:1;"/><polygon fill="#181818" points="163.0449,167.2469,167.0449,158.2469,163.0449,162.2469,159.0449,158.2469,163.0449,167.2469" style="stroke:#181818;stroke-width:1;"/><text fill="#000000" font-family="sans-serif" font-size="13" lengthAdjust="spacing" textLength="29.7832" x="164.0449" y="133.3638">uses</text></g><!--SRC=[AyaioKbLS4ajISpCIKq1Ceepq_CKN2iISmk0ui4bYIMPoGfXcQdbN5p9-Ra5-NcfUIKAfNcP9OPeV2CkBh2mWgwk7KH0mKgXj3Yrc0i0]--></g></svg>